<?xml version="1.0" encoding="iso-8859-1"?>
<!-- Generator: Adobe Illustrator 16.0.0, SVG Export Plug-In . SVG Version: 6.00 Build 0)  -->
<!DOCTYPE svg PUBLIC "-//W3C//DTD SVG 1.1//EN" "http://www.w3.org/Graphics/SVG/1.1/DTD/svg11.dtd">
<svg version="1.1" id="Capa_1" xmlns="http://www.w3.org/2000/svg" xmlns:xlink="http://www.w3.org/1999/xlink" x="0px" y="0px"
	 width="167.548px" height="167.548px" viewBox="0 0 167.548 167.548" style="enable-background:new 0 0 167.548 167.548;"
	 xml:space="preserve">
<g>
	<g>
		<path d="M134.067,146.82H33.495c-1.484,0-2.7,1.219-2.7,2.7c0,1.487,1.216,2.7,2.7,2.7h100.578c1.486,0,2.699-1.213,2.699-2.7
			C136.772,148.039,135.565,146.82,134.067,146.82z"/>
		<path d="M166.467,47.635c-0.944-0.709-2.23-0.72-3.186-0.039l-43.464,30.965c-1.012,0.717-1.397,2.025-0.949,3.18
			c0.417,1.057,0.628,2.138,0.628,3.201c0,4.835-3.939,8.775-8.775,8.775c-4.841,0-8.774-3.939-8.774-8.775
			c0-4.627,3.644-8.456,8.295-8.709c0.901-0.055,1.709-0.546,2.178-1.318c0.459-0.778,0.501-1.716,0.116-2.537L86.21,16.864
			c-0.448-0.943-1.399-1.537-2.441-1.537c-1.047,0-1.993,0.594-2.441,1.537L54.981,72.426c-0.377,0.788-0.34,1.722,0.097,2.489
			c0.443,0.778,1.231,1.271,2.112,1.35c4.556,0.4,7.986,4.142,7.986,8.677c0,4.835-3.937,8.775-8.774,8.775
			c-4.839,0-8.775-3.939-8.775-8.775c0-0.868,0.166-1.788,0.512-2.805c0.38-1.118-0.011-2.357-0.96-3.043L4.304,47.619
			c-0.958-0.699-2.247-0.699-3.209,0.005c-0.949,0.702-1.334,1.938-0.944,3.056l30.958,89.147c0.372,1.086,1.397,1.813,2.547,1.813
			h100.222c1.154,0,2.173-0.728,2.552-1.813l30.955-89.147C167.796,49.567,167.411,48.342,166.467,47.635z M131.973,136.242H35.596
			L8.108,57.111l34.399,25.252c-0.172,0.873-0.264,1.727-0.264,2.584c0,7.815,6.359,14.175,14.175,14.175
			c7.812,0,14.175-6.359,14.175-14.175c0-6.091-3.797-11.274-9.273-13.255l22.465-47.363l22.396,47.239
			c-5.627,1.898-9.629,7.193-9.629,13.384c0,7.815,6.359,14.175,14.175,14.175c7.81,0,14.175-6.359,14.175-14.175
			c0-1.036-0.121-2.077-0.364-3.103l34.984-24.922L131.973,136.242z"/>
		<path d="M84.94,40.777c-1.351-0.627-2.953-0.061-3.597,1.279L69.254,67.561c-0.503,1.052-0.264,2.328,0.593,3.122
			c3.952,3.71,6.146,8.765,6.146,14.259c0,1.487,1.21,2.7,2.7,2.7s2.7-1.213,2.7-2.7c0-6.323-2.272-12.208-6.454-16.767
			l11.287-23.791C86.859,43.028,86.29,41.415,84.94,40.777z"/>
	</g>
</g>
<g>
</g>
<g>
</g>
<g>
</g>
<g>
</g>
<g>
</g>
<g>
</g>
<g>
</g>
<g>
</g>
<g>
</g>
<g>
</g>
<g>
</g>
<g>
</g>
<g>
</g>
<g>
</g>
<g>
</g>
</svg>
